<?xml version="1.0" encoding="utf-8"?>
<!-- Generator: Adobe Illustrator 23.0.1, SVG Export Plug-In . SVG Version: 6.00 Build 0)  -->
<svg version="1.1" id="Layer_1" xmlns="http://www.w3.org/2000/svg" xmlns:xlink="http://www.w3.org/1999/xlink" x="0px" y="0px"
	 viewBox="0 0 1000 1000" style="enable-background:new 0 0 1000 1000;" xml:space="preserve">
<style type="text/css">
	.st0{fill:#D31F27;}
	.st1{fill:#FFFFFF;}
	.st2{fill:#0A0F11;}
</style>
<g>
	<rect x="161" y="161.5" class="st0" width="675.8" height="540.6"/>
	<g>
		<path class="st1" d="M761.7,353.5c-20.8,0-37.6,16.9-37.6,37.5c0,20.8,16.9,37.6,37.6,37.6c20.7,0,37.5-16.9,37.5-37.6
			C799.2,370.4,782.3,353.5,761.7,353.5 M718.1,446.1c0.4,1.3-0.9,2.2-3.3,4.1l-1.5,0.8l0.5,1c0.3,0.5-0.2,1.6-1.2,2l-2.3,1.2
			c-1,0.5-2.1,0.4-2.4-0.2l-0.5-0.9l-2.8,1.4l0.5,0.9c0.3,0.6-0.3,1.6-1.3,2l-2.3,1.1c-1.1,0.5-2.2,0.3-2.5-0.3l-0.4-0.9
			c-8.7,4.1-18.3,8.3-28.3,13l0.5,1.3c0.3,0.5-0.3,1.5-1.3,2l-2.3,1c-1,0.5-2.1,0.3-2.4-0.3l-0.5-1.2l-3.3,1.6l0.6,1.2
			c0.3,0.7-0.3,1.6-1.3,2.1l-2.3,1c-1,0.5-2.1,0.4-2.4-0.3l-0.5-1.2c-4.6,1.9-9.5,2.6-13.1-4.1c-1.6-3.1-1.6-10.3-2.8-14.1
			c-0.6-2-3-2.3-3-2.3c-44-8.4-58.9,0.9-87.2-6c-8.8-2.2-13.7-10.4-24.6-10.5c-23.8-0.7-30.9-0.4-56.7-1.4c-1.1,3.8-1.2,4.6-1.2,4.6
			l-90.8-0.5l13.8,6.9l4.5,40c0,0-3.7,1.1-4.8,1.2c0.9,8,1.7,18.8,2.2,28.5c0.4,8.7,0.9,17.9,0.8,23.7c-0.1,1.8-0.1,6.1-2.6,10.8
			c-1.6,3.1-4.5,5.7-6.9,7.4c-0.8,0.6-4.3,3-8.3,5.4c-4.2,2.4-8.9,4.9-11.4,6.2c0.2,1.1,1,2.2,1.2,3
			C309,604,240.6,613.1,218.4,655.6c-2.6,4.9-11.6,2.3-11.9-3c-0.1-2.4-0.1-6.4,0.1-8.5l-0.9-0.1c-0.7,0-1.2-1-1.2-2.1l0.1-2.5
			c0.1-1.2,0.7-2,1.4-2l0.9,0.1c0.3-2.5,0.8-4.9,1.4-7.3l-0.9-0.3c-0.6-0.2-0.9-1.3-0.5-2.4l0.8-2.3c0.5-1.1,1.2-1.7,2-1.5l0.9,0.2
			c3.9-9.2,11.5-13.3,15.1-21.9l-0.5-0.2c-0.7-0.2-0.9-1.3-0.5-2.4l0.8-2.3c0.5-1,1.3-1.7,2-1.5l0.6,0.2c0.5-1.2,1.2-2.7,1.9-4
			l-0.8-0.5c-0.6-0.4-0.6-1.5,0-2.4l1.3-2.1c0.6-0.9,1.6-1.4,2.2-1l0.3,0.2l0.4,0.1c0.2,0,0.2-0.1,0.4-0.2c0.4-0.4,0.8-0.8,1.2-1.1
			c3.6-2.8,8-2.3,11.7-0.2c3.4,2.1,17,9.8,30-2c21.5-19.3,46.7-45.6,65.7-46.4c-5.2-11.2-14-34.3-15.1-42.9l-6.4-1.3
			c-3.3-7.1-11.4-40-13.7-64.8c0,0-2.7-26.7-0.1-36.1c-1.5-0.2-4.1,2-4.9,2c-3.4-8.5,7.8-80.4,19-101.3l17.1-6.8
			c-1.8-0.2-14.1-0.8-46.6-3.4c-18.1,16-39.1,33.3-49.7,42.8c-1.8,1.3-4.8,11.5-4.8,11.5s-5.4,4.8-10.3,8.2
			c-6.6,4.7-22.7,8.2-26.1,2.7c-0.9-1.3-0.7-2,0.1-2.7c2.5-2.6,11.9-7.1,15.1-13c-5.1,2.6-10.8,5.3-15.4,4.8c-2-0.1-2.9-4.9-0.4-5.8
			c6.8-2.9,12.2-4.1,16.2-9.8c3.9-5.4,8.6-9.1,14.8-9.2c0,0,30.2-39.4,48-58.1c4.9-5.1,14-3.4,14-3.4l1.6-6c0,0,61-7.3,89.4,2.2
			c-0.7-17.3,7.1-40.2,34-40.2c13.9,0,34.3,12.3,37.1,27.2c0.9,4.6-1.8,7.6-3.2,13.4c-2.4,8.8,0.9,18.5-0.1,21.5
			c-0.8,2.6-3.7,2.3-6.1,5.8c-2.7,3.7-5.6,10.5-5.6,10.5l-3.7,8.3l-19-1.4c-6.9,15-21.2,45.6-26.2,75.9c15,1.3,82.6,11.1,82.6,11.1
			l1.6,5.5c0,0,28.6,3.4,51.9,14.5c5.2,1.2,18.3-0.7,26.9,3.3c0.6-0.4,2-1.8,2.6-2.2c30.4,9.4,55.6,25.3,85,32.4
			c0,0,13.7,3.4,18.3,4.3c10.8,2.1,17.8,2.6,23.5,3c9.4,0.7,14.7,0.5,21.5,0.9C710.2,439.8,716.1,439,718.1,446.1"/>
		<path class="st2" d="M801.6,776l-10.5,32.8H812L801.6,776z M815.7,822h-28.5l-5.1,15.2H764l26-72.6h23.2l25.8,72.6h-18.3
			L815.7,822z M756.4,795.2v39.5c-6.8,2.3-15.8,3.8-25.1,3.8c-25.3,0-37.1-11.2-37.1-37.7c0-26.3,11.9-37.6,37.1-37.6
			c9,0,17.5,1.4,24,4.1v14c-7.1-2.4-15-3.8-22.6-3.8c-15.2,0-20,6.2-20,23.3c0,17.9,5,23.9,19.4,23.9c3.3,0,6.5-0.2,9.5-0.6v-16.2
			h-13.5v-12.6L756.4,795.2z M663.1,764.5h18.2v72.6h-18.2V764.5z M602.5,764.5h18.1v58.8h31.2v13.8h-49.3V764.5z M536.2,834.4
			v-14.1c8.7,2.9,16.5,3.9,24.3,3.9c8.3,0,12-2.2,12-7.8c0-4.9-1.6-6.3-8.3-7.7l-12.1-2.5c-12.6-2.6-16.8-7.7-16.8-20.1
			c0-15.9,9.4-22.8,28.2-22.8c8.6,0,16.6,1.4,23.2,3.9v14.2c-7.8-2.7-15.1-3.8-22.1-3.8c-9,0-12,2.3-12,8c0,4.7,2.1,6,8,7.3
			l11.7,2.5c13.7,3,17.5,7.6,17.5,20.5c0,15.6-9.6,22.7-29.2,22.7C552,838.5,543.7,837.1,536.2,834.4 M473.8,764.5h50.9v13.9h-32.8
			v15.3h27.2v13.7h-27.2v16h33.5v13.8h-51.6L473.8,764.5z M427.9,823.4c10.6,0,14.1-5.5,14.1-22.6c0-16.9-3.5-22.4-14.1-22.4h-13.7
			v44.9H427.9z M396,764.5h32.5c25.4,0,32.1,10.5,32.1,36.3c0,25.1-7.3,36.4-32.1,36.4H396V764.5z M381.1,764.5v72.6H359l-30.9-52.5
			v52.5h-16.9v-72.6h22.1l30.8,52.6v-52.6H381.1z M232.9,813.5v-49H251V813c0,8,3.7,11.1,13.5,11.1c9.8,0,13.4-3,13.4-11.1v-48.5
			h18.2v49c0,17.1-9.9,25-31.6,25C242.8,838.5,232.9,830.6,232.9,813.5 M203.4,815.6c0-6.7-2.7-9.5-8.8-9.5h-16.3v18.8h16.3
			C201,824.9,203.4,822.2,203.4,815.6 M178.2,794.9h15.2c6.1,0,8.8-2.7,8.8-8.9c0-6.6-2.6-9.1-8.8-9.1h-15.2V794.9z M221,817.4
			c0,13-6,19.8-22.4,19.8H161v-72.6h36.2c16.9,0,22.8,6.7,22.8,19c0,9.4-3.5,13.7-13.6,16.2l-1.9,0.5l1.6,0.3
			C217.5,803,221,807.2,221,817.4"/>
	</g>
</g>
</svg>
